<mxfile host="app.diagrams.net" modified="2020-08-12T03:27:55.058Z" agent="5.0 (Windows)" etag="0piOs7Yj-8uh-lgax4Yo" version="13.6.2" type="github">
  <diagram id="4YLxi5chgIlH7ybV74Mb" name="Page-1">
    <mxGraphModel dx="868" dy="479" grid="1" gridSize="10" guides="1" tooltips="1" connect="1" arrows="1" fold="1" page="1" pageScale="1" pageWidth="827" pageHeight="1169" math="0" shadow="0">
      <root>
        <mxCell id="0" />
        <mxCell id="1" parent="0" />
        <mxCell id="_3yhyAZsYK6C7nm6-Vl1-10" value="" style="edgeStyle=orthogonalEdgeStyle;rounded=0;orthogonalLoop=1;jettySize=auto;html=1;" parent="1" source="_3yhyAZsYK6C7nm6-Vl1-2" target="_3yhyAZsYK6C7nm6-Vl1-3" edge="1">
          <mxGeometry relative="1" as="geometry" />
        </mxCell>
        <mxCell id="_3yhyAZsYK6C7nm6-Vl1-2" value="SalarioVendedora " style="rounded=1;whiteSpace=wrap;html=1;" parent="1" vertex="1">
          <mxGeometry x="291.5" y="20" width="120" height="60" as="geometry" />
        </mxCell>
        <mxCell id="_3yhyAZsYK6C7nm6-Vl1-9" value="" style="edgeStyle=orthogonalEdgeStyle;rounded=0;orthogonalLoop=1;jettySize=auto;html=1;" parent="1" source="_3yhyAZsYK6C7nm6-Vl1-3" edge="1">
          <mxGeometry relative="1" as="geometry">
            <mxPoint x="351.5" y="260" as="targetPoint" />
          </mxGeometry>
        </mxCell>
        <mxCell id="_3yhyAZsYK6C7nm6-Vl1-3" value="Inicio" style="ellipse;whiteSpace=wrap;html=1;" parent="1" vertex="1">
          <mxGeometry x="291.5" y="140" width="120" height="80" as="geometry" />
        </mxCell>
        <mxCell id="_3yhyAZsYK6C7nm6-Vl1-8" value="" style="edgeStyle=orthogonalEdgeStyle;rounded=0;orthogonalLoop=1;jettySize=auto;html=1;" parent="1" edge="1">
          <mxGeometry relative="1" as="geometry">
            <mxPoint x="351.5" y="320" as="sourcePoint" />
            <mxPoint x="351.5" y="370" as="targetPoint" />
          </mxGeometry>
        </mxCell>
        <mxCell id="_3yhyAZsYK6C7nm6-Vl1-25" value="" style="edgeStyle=orthogonalEdgeStyle;rounded=0;orthogonalLoop=1;jettySize=auto;html=1;" parent="1" source="_3yhyAZsYK6C7nm6-Vl1-16" target="_3yhyAZsYK6C7nm6-Vl1-23" edge="1">
          <mxGeometry relative="1" as="geometry" />
        </mxCell>
        <mxCell id="_3yhyAZsYK6C7nm6-Vl1-16" value="salarioFinal = CalculoComissao + comissãoFixa + salarioMes    " style="rounded=0;whiteSpace=wrap;html=1;" parent="1" vertex="1">
          <mxGeometry x="224" y="880" width="260" height="60" as="geometry" />
        </mxCell>
        <mxCell id="_3yhyAZsYK6C7nm6-Vl1-18" value="Fim" style="ellipse;whiteSpace=wrap;html=1;" parent="1" vertex="1">
          <mxGeometry x="294" y="1089" width="120" height="80" as="geometry" />
        </mxCell>
        <mxCell id="HzRXGLf5hMp0F1mqygel-8" value="" style="edgeStyle=orthogonalEdgeStyle;rounded=0;orthogonalLoop=1;jettySize=auto;html=1;" edge="1" parent="1" source="_3yhyAZsYK6C7nm6-Vl1-19" target="HzRXGLf5hMp0F1mqygel-7">
          <mxGeometry relative="1" as="geometry" />
        </mxCell>
        <mxCell id="HzRXGLf5hMp0F1mqygel-14" value="" style="edgeStyle=orthogonalEdgeStyle;rounded=0;orthogonalLoop=1;jettySize=auto;html=1;" edge="1" parent="1" source="_3yhyAZsYK6C7nm6-Vl1-19" target="HzRXGLf5hMp0F1mqygel-12">
          <mxGeometry relative="1" as="geometry" />
        </mxCell>
        <mxCell id="_3yhyAZsYK6C7nm6-Vl1-19" value="carrosVendidos &amp;gt;=&amp;nbsp; 1 " style="rhombus;whiteSpace=wrap;html=1;" parent="1" vertex="1">
          <mxGeometry x="264" y="640" width="180" height="100" as="geometry" />
        </mxCell>
        <mxCell id="_3yhyAZsYK6C7nm6-Vl1-26" value="" style="edgeStyle=orthogonalEdgeStyle;rounded=0;orthogonalLoop=1;jettySize=auto;html=1;" parent="1" source="_3yhyAZsYK6C7nm6-Vl1-23" target="_3yhyAZsYK6C7nm6-Vl1-18" edge="1">
          <mxGeometry relative="1" as="geometry" />
        </mxCell>
        <mxCell id="_3yhyAZsYK6C7nm6-Vl1-23" value="salário final " style="shape=document;whiteSpace=wrap;html=1;boundedLbl=1;" parent="1" vertex="1">
          <mxGeometry x="279" y="980" width="150" height="80" as="geometry" />
        </mxCell>
        <mxCell id="HzRXGLf5hMp0F1mqygel-18" style="edgeStyle=orthogonalEdgeStyle;rounded=0;orthogonalLoop=1;jettySize=auto;html=1;entryX=1;entryY=0.5;entryDx=0;entryDy=0;" edge="1" parent="1" source="_3yhyAZsYK6C7nm6-Vl1-24" target="_3yhyAZsYK6C7nm6-Vl1-18">
          <mxGeometry relative="1" as="geometry">
            <Array as="points">
              <mxPoint x="690" y="1129" />
            </Array>
          </mxGeometry>
        </mxCell>
        <mxCell id="_3yhyAZsYK6C7nm6-Vl1-24" value="&lt;div&gt;Exibir apenas &lt;br&gt;&lt;/div&gt;&lt;div&gt;salarioMes&lt;br&gt;&lt;/div&gt;" style="shape=document;whiteSpace=wrap;html=1;boundedLbl=1;" parent="1" vertex="1">
          <mxGeometry x="640" y="890" width="120" height="80" as="geometry" />
        </mxCell>
        <mxCell id="HzRXGLf5hMp0F1mqygel-5" value="" style="edgeStyle=orthogonalEdgeStyle;rounded=0;orthogonalLoop=1;jettySize=auto;html=1;" edge="1" parent="1" source="HzRXGLf5hMp0F1mqygel-1" target="_3yhyAZsYK6C7nm6-Vl1-19">
          <mxGeometry relative="1" as="geometry" />
        </mxCell>
        <mxCell id="HzRXGLf5hMp0F1mqygel-1" value="&lt;div&gt;insira &lt;/div&gt;&lt;div&gt;quantidade de carro &lt;/div&gt;&lt;div&gt;vendidos&lt;br&gt;&lt;/div&gt;" style="shape=document;whiteSpace=wrap;html=1;boundedLbl=1;" vertex="1" parent="1">
          <mxGeometry x="294" y="510" width="120" height="80" as="geometry" />
        </mxCell>
        <mxCell id="HzRXGLf5hMp0F1mqygel-6" value="" style="edgeStyle=orthogonalEdgeStyle;rounded=0;orthogonalLoop=1;jettySize=auto;html=1;" edge="1" parent="1" source="HzRXGLf5hMp0F1mqygel-2" target="HzRXGLf5hMp0F1mqygel-1">
          <mxGeometry relative="1" as="geometry" />
        </mxCell>
        <mxCell id="HzRXGLf5hMp0F1mqygel-2" value="&lt;div&gt;insira  &lt;/div&gt;&lt;div&gt;comissaoMes &lt;br&gt; &lt;/div&gt;" style="shape=document;whiteSpace=wrap;html=1;boundedLbl=1;" vertex="1" parent="1">
          <mxGeometry x="294" y="370" width="120" height="80" as="geometry" />
        </mxCell>
        <mxCell id="HzRXGLf5hMp0F1mqygel-3" value="&lt;div&gt;insira &lt;/div&gt;&lt;div&gt;salarioMes&lt;br&gt;&lt;/div&gt;" style="shape=document;whiteSpace=wrap;html=1;boundedLbl=1;" vertex="1" parent="1">
          <mxGeometry x="291.5" y="260" width="120" height="80" as="geometry" />
        </mxCell>
        <mxCell id="HzRXGLf5hMp0F1mqygel-9" style="edgeStyle=orthogonalEdgeStyle;rounded=0;orthogonalLoop=1;jettySize=auto;html=1;" edge="1" parent="1" source="HzRXGLf5hMp0F1mqygel-7" target="_3yhyAZsYK6C7nm6-Vl1-24">
          <mxGeometry relative="1" as="geometry" />
        </mxCell>
        <mxCell id="HzRXGLf5hMp0F1mqygel-7" value="cálculo = saláriofixo + comissão fixa " style="whiteSpace=wrap;html=1;" vertex="1" parent="1">
          <mxGeometry x="600" y="660" width="200" height="60" as="geometry" />
        </mxCell>
        <mxCell id="HzRXGLf5hMp0F1mqygel-10" value="Não" style="text;html=1;align=center;verticalAlign=middle;resizable=0;points=[];autosize=1;" vertex="1" parent="1">
          <mxGeometry x="510" y="670" width="40" height="20" as="geometry" />
        </mxCell>
        <mxCell id="HzRXGLf5hMp0F1mqygel-11" value="Sim" style="text;html=1;align=center;verticalAlign=middle;resizable=0;points=[];autosize=1;" vertex="1" parent="1">
          <mxGeometry x="360" y="750" width="40" height="20" as="geometry" />
        </mxCell>
        <mxCell id="HzRXGLf5hMp0F1mqygel-15" value="" style="edgeStyle=orthogonalEdgeStyle;rounded=0;orthogonalLoop=1;jettySize=auto;html=1;" edge="1" parent="1" source="HzRXGLf5hMp0F1mqygel-12" target="_3yhyAZsYK6C7nm6-Vl1-16">
          <mxGeometry relative="1" as="geometry" />
        </mxCell>
        <mxCell id="HzRXGLf5hMp0F1mqygel-12" value="CalculoComissao = carrosVendidos * comissãoVenda 5%  " style="rounded=0;whiteSpace=wrap;html=1;" vertex="1" parent="1">
          <mxGeometry x="224" y="790" width="260" height="60" as="geometry" />
        </mxCell>
      </root>
    </mxGraphModel>
  </diagram>
</mxfile>
